<svg width="50" height="50" viewBox="0 0 50 50" fill="none" xmlns="http://www.w3.org/2000/svg">
<path d="M30.269 10.3942C32.4408 10.818 34.4368 11.8802 36.0014 13.4448C37.5661 15.0095 38.6283 17.0054 39.052 19.1772M30.269 1.50024C34.7814 2.00157 38.9893 4.02233 42.2017 7.23073C45.4141 10.4391 47.4401 14.6445 47.947 19.1562M45.723 36.9002V43.5712C45.7255 44.1905 45.5987 44.8034 45.3506 45.3708C45.1026 45.9381 44.7387 46.4474 44.2825 46.8661C43.8262 47.2847 43.2875 47.6034 42.7009 47.8018C42.1143 48.0002 41.4927 48.0739 40.876 48.0182C34.0336 47.275 27.4609 44.937 21.686 41.1922C16.3133 37.7782 11.7581 33.223 8.34403 27.8502C4.58619 22.0492 2.24771 15.4445 1.51803 8.57124C1.46249 7.95637 1.5356 7.33667 1.73269 6.7516C1.92978 6.16653 2.24653 5.62891 2.66278 5.17296C3.07903 4.71701 3.58566 4.35273 4.15041 4.10331C4.71516 3.85389 5.32565 3.7248 5.94303 3.72424H12.614C13.6932 3.71364 14.7394 4.09584 15.5576 4.7996C16.3758 5.50335 16.9101 6.48063 17.061 7.54924C17.3422 9.68494 17.8642 11.7819 18.617 13.8002C18.9163 14.5961 18.9812 15.4611 18.804 16.2927C18.6268 17.1242 18.2148 17.8876 17.617 18.4922L14.793 21.3162C17.9583 26.8815 22.5666 31.4894 28.132 34.6542L30.956 31.8302C31.5607 31.2324 32.324 30.8205 33.1556 30.6433C33.9872 30.466 34.8522 30.5309 35.648 30.8302C37.6653 31.5832 39.7613 32.1055 41.896 32.3872C42.9765 32.539 43.9634 33.0827 44.6691 33.9149C45.3747 34.747 45.7498 35.8095 45.723 36.9002Z" stroke="white" stroke-width="3" stroke-linecap="round" stroke-linejoin="round"/>
</svg>
